<?xml version="1.0" encoding="UTF-8" standalone="no"?>
<!-- Created with Inkscape (http://www.inkscape.org/) -->

<svg
   xmlns:dc="http://purl.org/dc/elements/1.1/"
   xmlns:cc="http://creativecommons.org/ns#"
   xmlns:rdf="http://www.w3.org/1999/02/22-rdf-syntax-ns#"
   xmlns:svg="http://www.w3.org/2000/svg"
   xmlns="http://www.w3.org/2000/svg"
   xmlns:sodipodi="http://sodipodi.sourceforge.net/DTD/sodipodi-0.dtd"
   xmlns:inkscape="http://www.inkscape.org/namespaces/inkscape"
   width="269.18155"
   height="274.08319"
   viewBox="0 0 71.220948 72.517847"
   version="1.1"
   id="svg8"
   inkscape:version="0.92.5 (2060ec1f9f, 2020-04-08)"
   sodipodi:docname="raphael-righetti-logo.svg">
  <defs
     id="defs2" />
  <sodipodi:namedview
     id="base"
     pagecolor="#ffffff"
     bordercolor="#666666"
     borderopacity="1.0"
     inkscape:pageopacity="0.0"
     inkscape:pageshadow="2"
     inkscape:zoom="1.4"
     inkscape:cx="130.02926"
     inkscape:cy="134.97678"
     inkscape:document-units="px"
     inkscape:current-layer="text12"
     showgrid="false"
     units="px"
     inkscape:window-width="1306"
     inkscape:window-height="704"
     inkscape:window-x="0"
     inkscape:window-y="27"
     inkscape:window-maximized="1" />
  <metadata
     id="metadata5">
    <rdf:RDF>
      <cc:Work
         rdf:about="">
        <dc:format>image/svg+xml</dc:format>
        <dc:type
           rdf:resource="http://purl.org/dc/dcmitype/StillImage" />
        <dc:title></dc:title>
      </cc:Work>
    </rdf:RDF>
  </metadata>
  <g
     inkscape:label="Layer 1"
     inkscape:groupmode="layer"
     id="layer1"
     transform="translate(-37.562381,-53.496206)">
    <g
       aria-label="R"
       style="font-style:italic;font-variant:normal;font-weight:bold;font-stretch:normal;font-size:43.94552612px;line-height:1.25;font-family:'Source Serif Pro';-inkscape-font-specification:'Source Serif Pro, Bold Italic';font-variant-ligatures:normal;font-variant-caps:normal;font-variant-numeric:normal;font-feature-settings:normal;text-align:start;letter-spacing:0px;word-spacing:0px;writing-mode:lr-tb;text-anchor:start;fill:#000000;fill-opacity:1;stroke:none;stroke-width:1.09865046"
       id="text12">
      <g
         aria-label=";"
         style="font-style:normal;font-variant:normal;font-weight:normal;font-stretch:normal;font-size:10.58333302px;line-height:1.25;font-family:'Source Serif Pro';-inkscape-font-specification:'Source Serif Pro, Normal';font-variant-ligatures:normal;font-variant-caps:normal;font-variant-numeric:normal;font-feature-settings:normal;text-align:start;letter-spacing:0px;word-spacing:0px;writing-mode:lr-tb;text-anchor:start;opacity:0.5;fill:#da2c38;fill-opacity:1;stroke:none;stroke-width:0.29068461"
         id="g4555"
         transform="matrix(4.8215324,0,0,4.8215324,-376.32025,-287.46147)"
         inkscape:export-xdpi="96.126411"
         inkscape:export-ydpi="96.126411">
        <path
           d="m 99.724529,76.291756 q -0.317502,0 -0.539751,-0.22225 -0.211667,-0.22225 -0.211667,-0.529167 0,-0.3175 0.211667,-0.53975 0.222249,-0.22225 0.539751,-0.22225 0.317491,0 0.529161,0.22225 0.22224,0.22225 0.22224,0.53975 0,0.306917 -0.22224,0.529167 -0.21167,0.22225 -0.529161,0.22225 z m 0.666741,3.39725 q 0,0.635 -0.30691,1.17475 -0.296331,0.53975 -0.761999,0.92075 -0.465666,0.391583 -0.973666,0.582083 l -0.148167,-0.359833 q 0.53975,-0.275167 0.9525,-0.66675 0.412751,-0.391583 0.603251,-0.98425 l -0.391582,-0.306917 q -0.211669,-0.169333 -0.306919,-0.359833 -0.09525,-0.201083 -0.09525,-0.402167 0,-0.275166 0.15875,-0.465666 0.169333,-0.201084 0.497421,-0.201084 0.14816,0 0.29633,0.0635 0.158741,0.0635 0.359831,0.243417 0.0635,0.201083 0.0847,0.391583 0.0318,0.179917 0.0318,0.370417 z"
           style="font-style:normal;font-variant:normal;font-weight:normal;font-stretch:normal;font-size:10.58333302px;font-family:'Source Serif Pro';-inkscape-font-specification:'Source Serif Pro, Normal';font-variant-ligatures:normal;font-variant-caps:normal;font-variant-numeric:normal;font-feature-settings:normal;text-align:start;writing-mode:lr-tb;text-anchor:start;fill:#da2c38;fill-opacity:1;stroke-width:0.29068461"
           id="path4553"
           inkscape:connector-curvature="0" />
      </g>
      <g
         transform="matrix(4.8215324,0,0,4.8215324,-376.84942,-287.46147)"
         id="g4551"
         style="font-style:normal;font-variant:normal;font-weight:normal;font-stretch:normal;font-size:10.58333302px;line-height:1.25;font-family:'Source Serif Pro';-inkscape-font-specification:'Source Serif Pro, Normal';font-variant-ligatures:normal;font-variant-caps:normal;font-variant-numeric:normal;font-feature-settings:normal;text-align:start;letter-spacing:0px;word-spacing:0px;writing-mode:lr-tb;text-anchor:start;opacity:0.5;fill:#f6aa1c;fill-opacity:1;stroke:none;stroke-width:0.29068461"
         aria-label=";"
         inkscape:export-xdpi="96.126411"
         inkscape:export-ydpi="96.126411">
        <path
           inkscape:connector-curvature="0"
           id="path4549"
           style="font-style:normal;font-variant:normal;font-weight:normal;font-stretch:normal;font-size:10.58333302px;font-family:'Source Serif Pro';-inkscape-font-specification:'Source Serif Pro, Normal';font-variant-ligatures:normal;font-variant-caps:normal;font-variant-numeric:normal;font-feature-settings:normal;text-align:start;writing-mode:lr-tb;text-anchor:start;fill:#f6aa1c;fill-opacity:1;stroke-width:0.29068461"
           d="m 99.724529,76.291756 q -0.317502,0 -0.539751,-0.22225 -0.211667,-0.22225 -0.211667,-0.529167 0,-0.3175 0.211667,-0.53975 0.222249,-0.22225 0.539751,-0.22225 0.317491,0 0.529161,0.22225 0.22224,0.22225 0.22224,0.53975 0,0.306917 -0.22224,0.529167 -0.21167,0.22225 -0.529161,0.22225 z m 0.666741,3.39725 q 0,0.635 -0.30691,1.17475 -0.296331,0.53975 -0.761999,0.92075 -0.465666,0.391583 -0.973666,0.582083 l -0.148167,-0.359833 q 0.53975,-0.275167 0.9525,-0.66675 0.412751,-0.391583 0.603251,-0.98425 l -0.391582,-0.306917 q -0.211669,-0.169333 -0.306919,-0.359833 -0.09525,-0.201083 -0.09525,-0.402167 0,-0.275166 0.15875,-0.465666 0.169333,-0.201084 0.497421,-0.201084 0.14816,0 0.29633,0.0635 0.158741,0.0635 0.359831,0.243417 0.0635,0.201083 0.0847,0.391583 0.0318,0.179917 0.0318,0.370417 z" />
      </g>
      <g
         aria-label=";"
         style="font-style:normal;font-variant:normal;font-weight:normal;font-stretch:normal;font-size:10.58333302px;line-height:1.25;font-family:'Source Serif Pro';-inkscape-font-specification:'Source Serif Pro, Normal';font-variant-ligatures:normal;font-variant-caps:normal;font-variant-numeric:normal;font-feature-settings:normal;text-align:start;letter-spacing:0px;word-spacing:0px;writing-mode:lr-tb;text-anchor:start;opacity:0.95;fill:#f5f5f5;fill-opacity:1;stroke:none;stroke-width:0.29068461"
         id="text4541"
         transform="matrix(4.8215324,0,0,4.8215324,-377.37859,-287.46147)"
         inkscape:export-xdpi="96.126411"
         inkscape:export-ydpi="96.126411">
        <path
           d="m 99.724529,76.291756 q -0.317502,0 -0.539751,-0.22225 -0.211667,-0.22225 -0.211667,-0.529167 0,-0.3175 0.211667,-0.53975 0.222249,-0.22225 0.539751,-0.22225 0.317491,0 0.529161,0.22225 0.22224,0.22225 0.22224,0.53975 0,0.306917 -0.22224,0.529167 -0.21167,0.22225 -0.529161,0.22225 z m 0.666741,3.39725 q 0,0.635 -0.30691,1.17475 -0.296331,0.53975 -0.761999,0.92075 -0.465666,0.391583 -0.973666,0.582083 l -0.148167,-0.359833 q 0.53975,-0.275167 0.9525,-0.66675 0.412751,-0.391583 0.603251,-0.98425 l -0.391582,-0.306917 q -0.211669,-0.169333 -0.306919,-0.359833 -0.09525,-0.201083 -0.09525,-0.402167 0,-0.275166 0.15875,-0.465666 0.169333,-0.201084 0.497421,-0.201084 0.14816,0 0.29633,0.0635 0.158741,0.0635 0.359831,0.243417 0.0635,0.201083 0.0847,0.391583 0.0318,0.179917 0.0318,0.370417 z"
           style="font-style:normal;font-variant:normal;font-weight:normal;font-stretch:normal;font-size:10.58333302px;font-family:'Source Serif Pro';-inkscape-font-specification:'Source Serif Pro, Normal';font-variant-ligatures:normal;font-variant-caps:normal;font-variant-numeric:normal;font-feature-settings:normal;text-align:start;writing-mode:lr-tb;text-anchor:start;stroke-width:0.29068461;fill:#f5f5f5;fill-opacity:1"
           id="path4546"
           inkscape:connector-curvature="0" />
      </g>
      <path
         d="m 61.305401,62.953192 h -2.449824 l -2.563771,13.673444 2.164962,-0.05704 q 3.19047,-0.05691 5.070568,-1.253397 1.880097,-1.196431 2.734687,-3.133492 0.854591,-1.937073 0.854591,-4.102034 0,-2.506793 -1.538262,-3.817169 -1.48129,-1.310374 -4.272951,-1.310374 z m -15.610511,-0.22789 0.626699,-3.076524 h 17.832446 q 5.640295,0 8.48893,2.392852 2.848631,2.33588 2.848631,6.266992 0,2.051018 -1.08248,4.102035 -1.08248,2.051018 -3.58928,3.646246 -2.449823,1.595242 -6.551855,2.335884 2.506797,0.683677 3.703223,1.937074 1.253398,1.253397 1.880097,3.076526 0.6267,1.823115 1.196426,4.386889 l 1.481291,5.697263 4.443867,0.512755 -0.569726,3.076523 q -1.823127,0.45579 -2.905607,0.626701 -1.08248,0.170922 -2.620742,0.170922 -3.475333,0 -5.298458,-1.310377 -1.766154,-1.310373 -2.33588,-4.614788 l -1.424317,-6.608827 q -0.569726,-2.96257 -1.652207,-4.21598 -1.025509,-1.253396 -3.475332,-1.253396 h -1.025509 q -0.6267,3.418358 -1.253398,6.83673 -0.6267,3.418356 -1.196426,6.779737 l 4.443868,0.512755 -0.6267,3.076523 H 39.427896 l 0.6267,-3.076523 4.500841,-0.455779 3.076524,-16.237215 q 0.626699,-3.532302 1.253399,-7.064604 0.683671,-3.532302 1.253398,-7.064613 z"
         style="font-style:italic;font-variant:normal;font-weight:bold;font-stretch:normal;font-size:43.94552612px;font-family:'Source Serif Pro';-inkscape-font-specification:'Source Serif Pro, Bold Italic';font-variant-ligatures:normal;font-variant-caps:normal;font-variant-numeric:normal;font-feature-settings:normal;text-align:start;writing-mode:lr-tb;text-anchor:start;opacity:0.75;fill:#da2c38;fill-opacity:1;stroke-width:1.42433262"
         id="path23"
         inkscape:connector-curvature="0"
         inkscape:transform-center-x="1.7324926"
         inkscape:transform-center-y="-0.69299705"
         inkscape:export-xdpi="96.126411"
         inkscape:export-ydpi="96.126411" />
      <path
         inkscape:transform-center-y="-0.69299705"
         inkscape:transform-center-x="1.7324926"
         inkscape:connector-curvature="0"
         id="path19"
         style="font-style:italic;font-variant:normal;font-weight:bold;font-stretch:normal;font-size:43.94552612px;font-family:'Source Serif Pro';-inkscape-font-specification:'Source Serif Pro, Bold Italic';font-variant-ligatures:normal;font-variant-caps:normal;font-variant-numeric:normal;font-feature-settings:normal;text-align:start;writing-mode:lr-tb;text-anchor:start;opacity:0.75;fill:#f6aa1c;fill-opacity:1;stroke-width:1.42433262"
         d="M 60.776234,62.953192 H 58.32641 l -2.563771,13.673444 2.164962,-0.05704 q 3.19047,-0.05691 5.070568,-1.253397 1.880097,-1.196431 2.734687,-3.133492 0.854591,-1.937073 0.854591,-4.102034 0,-2.506793 -1.538262,-3.817169 -1.48129,-1.310374 -4.272951,-1.310374 z m -15.610511,-0.22789 0.626699,-3.076524 h 17.832446 q 5.640295,0 8.48893,2.392852 2.848631,2.33588 2.848631,6.266992 0,2.051018 -1.08248,4.102035 -1.08248,2.051018 -3.58928,3.646246 -2.449823,1.595242 -6.551855,2.335884 2.506797,0.683677 3.703223,1.937074 1.253398,1.253397 1.880097,3.076526 0.6267,1.823115 1.196426,4.386889 l 1.481291,5.697263 4.443867,0.512755 -0.569726,3.076523 q -1.823127,0.45579 -2.905607,0.626701 -1.08248,0.170922 -2.620742,0.170922 -3.475333,0 -5.298458,-1.310377 -1.766154,-1.310373 -2.33588,-4.614788 l -1.424317,-6.608827 q -0.569726,-2.96257 -1.652207,-4.21598 -1.025509,-1.253396 -3.475332,-1.253396 H 55.13594 q -0.6267,3.418358 -1.253398,6.83673 -0.6267,3.418356 -1.196426,6.779737 l 4.443868,0.512755 -0.6267,3.076523 H 38.898729 l 0.6267,-3.076523 4.500841,-0.455779 3.076524,-16.237215 q 0.626699,-3.532302 1.253399,-7.064604 0.683671,-3.532302 1.253398,-7.064613 z"
         inkscape:export-xdpi="96.126411"
         inkscape:export-ydpi="96.126411" />
      <path
         d="m 60.247067,62.953192 h -2.449824 l -2.563771,13.673444 2.164962,-0.05704 q 3.19047,-0.05691 5.070568,-1.253397 1.880097,-1.196431 2.734687,-3.133492 0.854591,-1.937073 0.854591,-4.102034 0,-2.506793 -1.538262,-3.817169 -1.48129,-1.310374 -4.272951,-1.310374 z m -15.610511,-0.22789 0.626699,-3.076524 h 17.832446 q 5.640295,0 8.48893,2.392852 2.848631,2.33588 2.848631,6.266992 0,2.051018 -1.08248,4.102035 -1.08248,2.051018 -3.58928,3.646246 -2.449823,1.595242 -6.551855,2.335884 2.506797,0.683677 3.703223,1.937074 1.253398,1.253397 1.880097,3.076526 0.6267,1.823115 1.196426,4.386889 l 1.481291,5.697263 4.443867,0.512755 -0.569726,3.076523 q -1.823127,0.45579 -2.905607,0.626701 -1.08248,0.170922 -2.620742,0.170922 -3.475333,0 -5.298458,-1.310377 -1.766154,-1.310373 -2.33588,-4.614788 l -1.424317,-6.608827 q -0.569726,-2.96257 -1.652207,-4.21598 -1.025509,-1.253396 -3.475332,-1.253396 h -1.025509 q -0.6267,3.418358 -1.253398,6.83673 -0.6267,3.418356 -1.196426,6.779737 l 4.443868,0.512755 -0.6267,3.076523 H 38.369562 l 0.6267,-3.076523 4.500841,-0.455779 3.076524,-16.237215 q 0.626699,-3.532302 1.253399,-7.064604 0.683671,-3.532302 1.253398,-7.064613 z"
         style="font-style:italic;font-variant:normal;font-weight:bold;font-stretch:normal;font-size:43.94552612px;font-family:'Source Serif Pro';-inkscape-font-specification:'Source Serif Pro, Bold Italic';font-variant-ligatures:normal;font-variant-caps:normal;font-variant-numeric:normal;font-feature-settings:normal;text-align:start;writing-mode:lr-tb;text-anchor:start;stroke-width:1.42433262;fill:#f5f5f5;fill-opacity:1"
         id="path14"
         inkscape:connector-curvature="0"
         inkscape:transform-center-x="1.7324926"
         inkscape:transform-center-y="-0.69299705"
         inkscape:export-xdpi="96.126411"
         inkscape:export-ydpi="96.126411" />
      <path
         inkscape:transform-center-y="-0.69299705"
         inkscape:transform-center-x="1.7324926"
         inkscape:connector-curvature="0"
         id="path4537"
         style="font-style:italic;font-variant:normal;font-weight:bold;font-stretch:normal;font-size:43.94552612px;font-family:'Source Serif Pro';-inkscape-font-specification:'Source Serif Pro, Bold Italic';font-variant-ligatures:normal;font-variant-caps:normal;font-variant-numeric:normal;font-feature-settings:normal;text-align:start;writing-mode:lr-tb;text-anchor:start;opacity:0.75;fill:#da2c38;fill-opacity:1;stroke-width:1.42433262"
         d="m 85.647083,86.765707 h -2.449824 l -2.563771,13.673443 2.164962,-0.057 q 3.19047,-0.0569 5.070568,-1.253396 1.880097,-1.196431 2.734687,-3.133492 0.854591,-1.937073 0.854591,-4.102034 0,-2.506793 -1.538262,-3.817169 -1.48129,-1.310374 -4.272951,-1.310374 z m -15.610511,-0.22789 0.626699,-3.076524 h 17.832446 q 5.640295,0 8.488931,2.392852 2.848625,2.33588 2.848625,6.266992 0,2.051018 -1.082474,4.102035 -1.082484,2.051018 -3.589281,3.646251 -2.449823,1.595237 -6.551855,2.335877 2.506797,0.68368 3.703223,1.93707 1.253398,1.2534 1.880097,3.07654 0.6267,1.82312 1.196426,4.38691 l 1.481289,5.6973 4.443872,0.51275 -0.56973,3.07654 q -1.823131,0.45579 -2.905605,0.62671 -1.082484,0.17092 -2.620743,0.17092 -3.475333,0 -5.298458,-1.31039 -1.766154,-1.31037 -2.33588,-4.61481 l -1.424317,-6.60886 q -0.569726,-2.96259 -1.652207,-4.216 -1.025509,-1.2534 -3.475332,-1.2534 h -1.025509 q -0.6267,3.41837 -1.253398,6.83676 -0.6267,3.41837 -1.196426,6.77978 l 4.443868,0.51275 -0.6267,3.07654 H 63.769578 l 0.6267,-3.07654 4.500841,-0.45578 3.076524,-16.23728 q 0.626699,-3.532297 1.253399,-7.064599 0.683671,-3.532302 1.253398,-7.064613 z"
         inkscape:export-xdpi="96.126411"
         inkscape:export-ydpi="96.126411" />
      <path
         d="m 85.117916,86.765707 h -2.449824 l -2.563771,13.673443 2.164962,-0.057 q 3.19047,-0.0569 5.070568,-1.253396 1.880097,-1.196431 2.734687,-3.133492 0.854591,-1.937073 0.854591,-4.102034 0,-2.506793 -1.538262,-3.817169 -1.48129,-1.310374 -4.272951,-1.310374 z m -15.610511,-0.22789 0.626699,-3.076524 H 87.96655 q 5.640295,0 8.488931,2.392852 2.848625,2.33588 2.848625,6.266992 0,2.051018 -1.082474,4.102035 -1.082484,2.051018 -3.589281,3.646251 -2.449823,1.595237 -6.551855,2.335877 2.506797,0.68368 3.703223,1.93707 1.253398,1.2534 1.880097,3.07654 0.6267,1.82312 1.196426,4.38691 l 1.481289,5.6973 4.443869,0.51275 -0.56973,3.07654 q -1.823128,0.45579 -2.905602,0.62671 -1.082481,0.17092 -2.620743,0.17092 -3.475333,0 -5.298458,-1.31039 -1.766154,-1.31037 -2.33588,-4.61481 l -1.424317,-6.60886 q -0.569726,-2.96259 -1.652207,-4.216 -1.025509,-1.2534 -3.475332,-1.2534 h -1.025509 q -0.6267,3.41837 -1.253398,6.83676 -0.6267,3.41837 -1.196426,6.77978 l 4.443868,0.51275 -0.6267,3.07654 H 63.240411 l 0.6267,-3.07654 4.500841,-0.45578 3.076524,-16.23728 q 0.626699,-3.532297 1.253399,-7.064599 0.683671,-3.532302 1.253398,-7.064613 z"
         style="font-style:italic;font-variant:normal;font-weight:bold;font-stretch:normal;font-size:43.94552612px;font-family:'Source Serif Pro';-inkscape-font-specification:'Source Serif Pro, Bold Italic';font-variant-ligatures:normal;font-variant-caps:normal;font-variant-numeric:normal;font-feature-settings:normal;text-align:start;writing-mode:lr-tb;text-anchor:start;opacity:0.75;fill:#f6aa1c;fill-opacity:1;stroke-width:1.42433262"
         id="path4535"
         inkscape:connector-curvature="0"
         inkscape:transform-center-x="1.7324926"
         inkscape:transform-center-y="-0.69299705"
         inkscape:export-xdpi="96.126411"
         inkscape:export-ydpi="96.126411" />
      <path
         inkscape:transform-center-y="-0.69299705"
         inkscape:transform-center-x="1.7324926"
         inkscape:connector-curvature="0"
         id="path4533"
         style="font-style:italic;font-variant:normal;font-weight:bold;font-stretch:normal;font-size:43.94552612px;font-family:'Source Serif Pro';-inkscape-font-specification:'Source Serif Pro, Bold Italic';font-variant-ligatures:normal;font-variant-caps:normal;font-variant-numeric:normal;font-feature-settings:normal;text-align:start;writing-mode:lr-tb;text-anchor:start;stroke-width:1.42433262;fill:#f5f5f5;fill-opacity:1"
         d="m 84.588749,86.765707 h -2.449824 l -2.563771,13.673443 2.164962,-0.057 q 3.19047,-0.0569 5.070568,-1.253396 1.880097,-1.196431 2.734687,-3.133492 0.854591,-1.937073 0.854591,-4.102034 0,-2.506793 -1.538262,-3.817169 -1.48129,-1.310374 -4.272951,-1.310374 z m -15.610511,-0.22789 0.626699,-3.076524 h 17.832446 q 5.640295,0 8.48893,2.392852 2.848626,2.33588 2.848626,6.266992 0,2.051018 -1.082484,4.102035 -1.082474,2.051018 -3.589271,3.646251 -2.449823,1.595237 -6.551855,2.335877 2.506797,0.68368 3.703223,1.93707 1.253398,1.2534 1.880097,3.07654 0.6267,1.82312 1.196426,4.38691 l 1.481291,5.6973 4.443864,0.51275 -0.569717,3.07654 q -1.823138,0.45579 -2.905612,0.62671 -1.082481,0.17092 -2.620743,0.17092 -3.475333,0 -5.298458,-1.31039 -1.766154,-1.31037 -2.33588,-4.61481 l -1.424317,-6.60886 q -0.569726,-2.96259 -1.652207,-4.216 -1.025509,-1.2534 -3.475332,-1.2534 h -1.025509 q -0.6267,3.41837 -1.253398,6.83676 -0.6267,3.41837 -1.196426,6.77978 l 4.443868,0.51275 -0.6267,3.07654 H 62.711244 l 0.6267,-3.07654 4.500841,-0.45578 3.076524,-16.23728 q 0.626699,-3.532297 1.253399,-7.064599 0.683671,-3.532302 1.253398,-7.064613 z"
         inkscape:export-xdpi="96.126411"
         inkscape:export-ydpi="96.126411" />
    </g>
  </g>
</svg>
